<svg width="32" height="32" viewBox="0 0 32 32" fill="none" xmlns="http://www.w3.org/2000/svg">
<rect width="32" height="32" rx="5" fill="black"/>
<path d="M11.4643 15.5574V15.5529V11.0489L11.4228 11.0181H11.4193L10.4735 10.3183C9.89499 9.88873 9.07048 9.90951 8.55776 10.4153C8.21479 10.7548 8 11.226 8 11.7491V12.9969L11.4643 15.5574Z" fill="white"/>
<path d="M20.4717 15.5529V15.5574L23.936 12.9969V11.7491C23.936 11.2329 23.7281 10.7617 23.3886 10.4222C22.8829 9.91746 22.0843 9.85822 21.5096 10.2826L20.5133 11.0181L20.4717 11.0489V15.5529Z" fill="white"/>
<path d="M12.1572 16.0649L15.7622 18.7296C15.8845 18.8201 16.0518 18.8201 16.1741 18.7296L19.7788 16.0649V11.5609L15.968 14.3785L12.1572 11.5609V16.0649Z" fill="white"/>
<path d="M20.4717 16.4186V21.6536C20.4717 21.8448 20.6269 22 20.8181 22H23.0699C23.5483 22 23.936 21.6123 23.936 21.1339V13.8578L20.4717 16.4186Z" fill="white"/>
<path d="M11.4643 16.4186L8 13.8578V21.1339C8 21.6123 8.38766 22 8.86608 22H11.1179C11.3091 22 11.4643 21.8448 11.4643 21.6536V16.4186Z" fill="white"/>
</svg>
